<svg width="25" height="25" viewBox="0 0 25 25" fill="none" xmlns="http://www.w3.org/2000/svg">
<path d="M6.24996 2.08334H15.625C16.1775 2.08334 16.7074 2.30284 17.0981 2.69354C17.4888 3.08424 17.7083 3.61414 17.7083 4.16668V6.25001H15.625V4.16668H6.24996V20.8333H15.625V18.75H17.7083V20.8333C17.7083 21.3859 17.4888 21.9158 17.0981 22.3065C16.7074 22.6972 16.1775 22.9167 15.625 22.9167H6.24996C5.69743 22.9167 5.16752 22.6972 4.77682 22.3065C4.38612 21.9158 4.16663 21.3859 4.16663 20.8333V4.16668C4.16663 3.61414 4.38612 3.08424 4.77682 2.69354C5.16752 2.30284 5.69743 2.08334 6.24996 2.08334Z" fill="#008894"/>
<path d="M16.7604 16.2396L18.2292 17.7083L23.4375 12.5L18.2292 7.29166L16.7604 8.76041L19.4479 11.4583H9.375V13.5417H19.4479L16.7604 16.2396Z" fill="#008894"/>
</svg>
