<svg width="13" height="15" viewBox="0 0 13 15" fill="none" xmlns="http://www.w3.org/2000/svg">
<path d="M4.15787 1.96273C4.12488 1.89712 4.07615 1.8361 4.01492 1.78373C3.95369 1.73136 3.88136 1.68884 3.80274 1.65899C3.72412 1.62914 3.641 1.61264 3.55891 1.61059C3.47682 1.60855 3.39764 1.621 3.32662 1.64712L2.2463 2.04429C1.74156 2.23016 1.44792 2.62992 1.49583 3.07992C1.69615 4.94317 2.40182 6.80502 3.56052 8.52737C4.71318 10.2519 6.28998 11.794 8.17399 13.0391C8.62929 13.3396 9.23713 13.4084 9.74249 13.2234L10.8226 12.8269C10.8937 12.8009 10.955 12.7618 11.0024 12.7122C11.0499 12.6626 11.0824 12.6036 11.0978 12.5392C11.1133 12.4749 11.1113 12.4065 11.0919 12.3388C11.0726 12.271 11.0364 12.2054 10.9858 12.1463L9.4471 10.3495C9.39296 10.2865 9.32371 10.2324 9.24459 10.1914C9.16547 10.1504 9.07855 10.1236 8.99037 10.113L7.05175 9.87851C6.79298 9.84725 6.53895 9.76191 6.31439 9.63081C6.08984 9.49971 5.90242 9.32732 5.77038 9.13041L4.24855 6.85991C4.11634 6.66302 4.04402 6.44828 4.03863 6.23663C4.03323 6.02497 4.09494 5.8236 4.21775 5.65213L5.13899 4.36838C5.18088 4.30999 5.20459 4.24255 5.20835 4.17114C5.21211 4.09973 5.19581 4.02623 5.16068 3.95617L4.15787 1.96273ZM2.85851 0.949998C3.04132 0.882855 3.24512 0.850891 3.45637 0.856227C3.66763 0.861563 3.88151 0.904077 4.08381 0.980947C4.28611 1.05782 4.4722 1.16728 4.62973 1.30208C4.78725 1.43687 4.91261 1.59391 4.99747 1.76276L6.0005 3.75555C6.18442 4.12107 6.1639 4.5127 5.94525 4.81755L5.02484 6.10157C4.97721 6.16809 4.95325 6.24619 4.95527 6.32829C4.95729 6.41038 4.98523 6.49369 5.03637 6.57012L6.55904 8.84088C6.61039 8.91739 6.68326 8.98435 6.77055 9.03526C6.85784 9.08617 6.95657 9.11929 7.05713 9.13138L8.99492 9.36556C9.22209 9.39298 9.44603 9.46214 9.64982 9.5678C9.85361 9.67345 10.0319 9.81285 10.1712 9.97544L11.7091 11.7719C12.2619 12.4177 12.0649 13.2392 11.2901 13.5231L10.21 13.9196C9.43698 14.2034 8.44758 14.1169 7.66674 13.6008C5.66808 12.2803 3.99522 10.6448 2.77228 8.81559C1.54357 6.98875 0.795338 5.01401 0.58308 3.03782C0.500643 2.26649 1.00625 1.63056 1.77924 1.34678L2.85851 0.949998Z" fill="#008894"/>
</svg>
