<svg width="25" height="26" viewBox="0 0 25 26" fill="none" xmlns="http://www.w3.org/2000/svg">
<path d="M12.5147 0.5C13.4947 0.510257 14.4708 0.619235 15.4268 0.82437C15.6305 0.868025 15.8149 0.971686 15.9542 1.12087C16.0935 1.27005 16.1808 1.4573 16.2039 1.65645L16.4309 3.61421C16.4629 3.89039 16.562 4.1555 16.7202 4.38818C16.8784 4.62086 17.0913 4.81461 17.3418 4.95382C17.5922 5.09303 17.8732 5.17381 18.1622 5.18965C18.4511 5.20549 18.7399 5.15595 19.0052 5.04503L20.8745 4.25654C21.0644 4.17621 21.2757 4.15454 21.479 4.1945C21.6823 4.23447 21.8677 4.3341 22.0094 4.47962C23.3606 5.86571 24.3667 7.52796 24.9523 9.34132C25.0137 9.53189 25.0118 9.73608 24.947 9.92559C24.8821 10.1151 24.7575 10.2806 24.5904 10.3991L22.9321 11.5735C22.6987 11.7379 22.5089 11.9528 22.3782 12.2008C22.2474 12.4487 22.1794 12.7228 22.1795 13.0007C22.1796 13.2787 22.2479 13.5527 22.3789 13.8006C22.5099 14.0484 22.6999 14.2632 22.9334 14.4274L24.5931 15.6005C24.7605 15.7191 24.8853 15.8848 24.9501 16.0745C25.0149 16.2643 25.0166 16.4688 24.9549 16.6595C24.3696 18.4727 23.3639 20.1349 22.0134 21.5212C21.8719 21.6667 21.6869 21.7664 21.4838 21.8066C21.2808 21.8468 21.0697 21.8255 20.8798 21.7456L19.0025 20.9545C18.7375 20.8427 18.4489 20.7925 18.1599 20.8078C17.8709 20.8231 17.5897 20.9035 17.3391 21.0426C17.0885 21.1817 16.8756 21.3755 16.7176 21.6084C16.5596 21.8412 16.4609 22.1065 16.4296 22.3828L16.2039 24.3393C16.1811 24.5363 16.0956 24.7217 15.9588 24.8702C15.8221 25.0187 15.641 25.123 15.4402 25.1688C13.5066 25.6104 11.4921 25.6104 9.55851 25.1688C9.3577 25.123 9.17654 25.0187 9.03982 24.8702C8.90311 24.7217 8.81752 24.5363 8.79477 24.3393L8.56778 22.3854C8.53493 22.1103 8.4354 21.8464 8.27717 21.6149C8.11894 21.3834 7.90641 21.1908 7.65664 21.0524C7.40686 20.9141 7.12679 20.8338 6.83889 20.8182C6.55098 20.8025 6.26327 20.8518 5.99881 20.9622L4.12016 21.752C3.93026 21.8319 3.71923 21.8532 3.51618 21.813C3.31313 21.7728 3.12808 21.6731 2.98656 21.5276C1.63541 20.1398 0.629682 18.4758 0.0450678 16.6608C-0.0166312 16.4701 -0.0149414 16.2656 0.0499025 16.0758C0.114746 15.886 0.239526 15.7204 0.406912 15.6018L2.06793 14.4274C2.30139 14.2631 2.49124 14.0482 2.62211 13.8003C2.75298 13.5524 2.82117 13.2784 2.82117 13.0004C2.82117 12.7225 2.75298 12.4484 2.62211 12.2005C2.49124 11.9526 2.30139 11.7378 2.06793 11.5735L0.408248 10.4016C0.240624 10.2832 0.115579 10.1176 0.0504923 9.92782C-0.0145948 9.73803 -0.0164908 9.53348 0.0450678 9.34261C0.630985 7.52913 1.63762 5.86686 2.98923 4.4809C3.13091 4.33565 3.31604 4.23618 3.51908 4.19623C3.72212 4.15627 3.93307 4.17779 4.12283 4.25782L5.99214 5.04631C6.25787 5.15692 6.54692 5.20614 6.83606 5.19001C7.1252 5.17389 7.40637 5.09288 7.65699 4.95348C7.9076 4.81408 8.12068 4.62018 8.27909 4.38736C8.4375 4.15455 8.53683 3.8893 8.56911 3.61293L8.7961 1.65645C8.81901 1.4569 8.9064 1.26924 9.046 1.11978C9.1856 0.97033 9.37042 0.866582 9.57453 0.823088C10.5332 0.619235 11.5106 0.511539 12.5147 0.5ZM12.4973 9.15414C11.435 9.15414 10.4161 9.55937 9.6649 10.2807C8.91369 11.002 8.49167 11.9803 8.49167 13.0004C8.49167 14.0205 8.91369 14.9988 9.6649 15.7202C10.4161 16.4415 11.435 16.8467 12.4973 16.8467C13.5597 16.8467 14.5786 16.4415 15.3298 15.7202C16.081 14.9988 16.503 14.0205 16.503 13.0004C16.503 11.9803 16.081 11.002 15.3298 10.2807C14.5786 9.55937 13.5597 9.15414 12.4973 9.15414Z" fill="#008894"/>
</svg>
