<svg width="16" height="15" viewBox="0 0 16 15" fill="none" xmlns="http://www.w3.org/2000/svg">
<path d="M1.46 0.98002C1.35337 0.8917 1.21233 0.843618 1.06661 0.845903C0.920882 0.848189 0.781843 0.900663 0.678784 0.992272C0.575724 1.08388 0.51669 1.20747 0.514119 1.337C0.511548 1.46654 0.56564 1.5919 0.665 1.68669L1.955 2.83335H1.8125C1.4644 2.83335 1.13056 2.95627 0.884422 3.17506C0.638281 3.39385 0.5 3.6906 0.5 4.00002V9.66669C0.5 10.3107 1.088 10.8334 1.8125 10.8334H10.955L12.0755 11.83C12.0295 11.8323 11.9835 11.8334 11.9375 11.8334H2.30075C2.49823 12.1375 2.78236 12.3901 3.12455 12.5656C3.46674 12.7412 3.85491 12.8335 4.25 12.8334H11.9375C12.32 12.8334 12.6875 12.78 13.0325 12.6807L14.54 14.0207C14.5919 14.0684 14.654 14.1065 14.7226 14.1327C14.7913 14.1588 14.8651 14.1726 14.9398 14.1731C15.0145 14.1737 15.0885 14.161 15.1577 14.1358C15.2268 14.1107 15.2896 14.0735 15.3423 14.0265C15.3951 13.9796 15.4369 13.9237 15.4651 13.8623C15.4934 13.8008 15.5076 13.735 15.5069 13.6686C15.5062 13.6022 15.4907 13.5366 15.4611 13.4756C15.4316 13.4146 15.3887 13.3595 15.335 13.3134L1.46 0.98002ZM7.946 8.15935C7.62222 8.39608 7.2109 8.5172 6.79215 8.49912C6.37341 8.48104 5.97723 8.32505 5.68078 8.06155C5.38434 7.79804 5.20885 7.44588 5.18851 7.07366C5.16817 6.70145 5.30443 6.33583 5.57075 6.04802L7.946 8.15935ZM2.8925 3.66669L3.8615 4.52802C3.80832 4.88916 3.60913 5.22077 3.30111 5.46097C2.99308 5.70116 2.59725 5.83352 2.1875 5.83335H1.4375V4.83335H2.1875C2.33668 4.83335 2.47976 4.78067 2.58525 4.68691C2.69074 4.59314 2.75 4.46596 2.75 4.33335V3.66669H2.8925ZM2.1875 8.83335H1.4375V7.83335H2.1875C2.63505 7.83335 3.06428 7.99139 3.38074 8.27269C3.69721 8.554 3.875 8.93553 3.875 9.33335V10H2.75V9.33335C2.75 9.20074 2.69074 9.07357 2.58525 8.9798C2.47976 8.88603 2.33668 8.83335 2.1875 8.83335ZM12.3125 8.83335H11.885L13.196 9.99869C13.2312 9.89335 13.25 9.78202 13.25 9.66669V4.00002C13.25 3.6906 13.1117 3.39385 12.8656 3.17506C12.6194 2.95627 12.2856 2.83335 11.9375 2.83335H5.135L10.8973 7.95469C11.1074 7.87441 11.3338 7.83312 11.5625 7.83335H12.3125V8.83335ZM11 3.66669V4.33335C11 4.60935 11.252 4.83335 11.5625 4.83335H12.3125V5.83335H11.5625C11.1149 5.83335 10.6857 5.67532 10.3693 5.39401C10.0528 5.11271 9.875 4.73118 9.875 4.33335V3.66669H11ZM14.0465 10.754L14.8602 11.4774C15.2637 10.964 15.5 10.34 15.5 9.66669V6.16669C15.5001 5.81551 15.3962 5.47049 15.1987 5.16634C15.0012 4.86218 14.7171 4.60961 14.375 4.43402V9.66669C14.375 10.0627 14.255 10.4347 14.0465 10.754Z" fill="#008894"/>
</svg>
